<svg xmlns="http://www.w3.org/2000/svg" xmlns:xlink="http://www.w3.org/1999/xlink" viewBox="0 0 196 178"><defs><style>.cls-1,.cls-2{fill:none;}.cls-2,.cls-3{clip-rule:evenodd;}.cls-3,.cls-4,.cls-47{fill:#fff;}.cls-5{clip-path:url(#clip-path);}.cls-6{clip-path:url(#clip-path-2);}.cls-7{clip-path:url(#clip-path-3);}.cls-8{clip-path:url(#clip-path-4);}.cls-9{clip-path:url(#clip-path-5);}.cls-10{clip-path:url(#clip-path-6);}.cls-11{clip-path:url(#clip-path-7);}.cls-12{clip-path:url(#clip-path-8);}.cls-13{clip-path:url(#clip-path-9);}.cls-14{clip-path:url(#clip-path-10);}.cls-15{clip-path:url(#clip-path-11);}.cls-16{clip-path:url(#clip-path-12);}.cls-17{clip-path:url(#clip-path-13);}.cls-18{clip-path:url(#clip-path-14);}.cls-19{clip-path:url(#clip-path-15);}.cls-20{clip-path:url(#clip-path-16);}.cls-21{clip-path:url(#clip-path-17);}.cls-22{clip-path:url(#clip-path-18);}.cls-23{clip-path:url(#clip-path-19);}.cls-24{clip-path:url(#clip-path-20);}.cls-25{clip-path:url(#clip-path-21);}.cls-26{clip-path:url(#clip-path-22);}.cls-27{clip-path:url(#clip-path-23);}.cls-28{clip-path:url(#clip-path-24);}.cls-29{clip-path:url(#clip-path-25);}.cls-30{clip-path:url(#clip-path-26);}.cls-31{clip-path:url(#clip-path-27);}.cls-32{clip-path:url(#clip-path-28);}.cls-33{clip-path:url(#clip-path-29);}.cls-34{clip-path:url(#clip-path-30);}.cls-35{clip-path:url(#clip-path-31);}.cls-36{clip-path:url(#clip-path-32);}.cls-37{clip-path:url(#clip-path-33);}.cls-38{clip-path:url(#clip-path-34);}.cls-39{clip-path:url(#clip-path-35);}.cls-40{clip-path:url(#clip-path-36);}.cls-41{clip-path:url(#clip-path-37);}.cls-42{clip-path:url(#clip-path-38);}.cls-43{clip-path:url(#clip-path-39);}.cls-44{clip-path:url(#clip-path-40);}.cls-45{clip-path:url(#clip-path-41);}.cls-46{clip-path:url(#clip-path-42);}.cls-47{fill-rule:evenodd;}.cls-48{clip-path:url(#clip-path-43);}.cls-49{clip-path:url(#clip-path-44);}.cls-50{clip-path:url(#clip-path-45);}.cls-51{clip-path:url(#clip-path-47);}.cls-52{clip-path:url(#clip-path-49);}</style><clipPath id="clip-path"><rect class="cls-1" x="-376.14" y="582.03" width="134.7" height="80.23"/></clipPath><clipPath id="clip-path-2"><path class="cls-2" d="M-455.72,625.73a2.71,2.71,0,0,0-2.12-1H-461c.73-4.81.25-8.23-1.51-10.79a10.23,10.23,0,0,0-3.48-3.07c-3-20.75-15.58-23.09-25.71-25a51.92,51.92,0,0,1-7.75-1.82c-2.27-.79-3.64-1.92-4.08-3.36-.82-2.69,1.35-6.43,2.25-7.63a2.71,2.71,0,0,0,.39-2.52,2.69,2.69,0,0,0-1.87-1.72c-19.79-5.06-34.83,15.33-37.56,19.34a14.17,14.17,0,0,0-7.77,8.38c-1.84,5.58.17,11.56,1.51,14.59a17.87,17.87,0,0,0-6,13.56h-.86a2.69,2.69,0,0,0-2.12,1,2.67,2.67,0,0,0-.51,2.28l9.23,39.42A11.11,11.11,0,0,0-536,676h60.7a11.11,11.11,0,0,0,10.85-8.6l9.23-39.42A2.7,2.7,0,0,0-455.72,625.73Zm-52-52.25a12.76,12.76,0,0,0-1,8.77c1,3.18,3.47,5.5,7.46,6.9a57.2,57.2,0,0,0,8.55,2c9.13,1.69,17.8,3.29,20.84,17.5-.24-.06-.52-.11-.78-.16l-.18,0c-.85-.18-1.76-.35-2.71-.51l-.39-.07-2.91-.45-.38-.06-3.5-.48c-3.78-.52-8.06-1.11-12.9-2-1.47-.27-2.9-.56-4.31-.87-.44-.09-.86-.2-1.29-.3-1-.22-1.94-.45-2.87-.7l-1.35-.35c-.95-.26-1.88-.53-2.8-.81l-1-.31c-1.23-.38-2.42-.78-3.58-1.18l-.51-.18c-1-.36-1.93-.71-2.85-1.07l-1-.4c-.75-.3-1.48-.6-2.18-.9l-1-.41-2.21-1-.6-.28c-.89-.42-1.75-.85-2.56-1.26l-.51-.26-1.81-1-.67-.37-1.46-.83-.54-.31-1.57-1-.12-.07-1.47-.94-.25-.17-.63-.42C-531,584.69-520.53,572.63-507.73,573.48ZM-543,598.23a8.56,8.56,0,0,1,4.19-4.81l.33.23.35.25.89.6.4.27c.43.29.91.59,1.43.92l.14.09c.57.36,1.2.74,1.86,1.13l.53.31,1.6.91.81.44,1.61.86,1,.49c.58.29,1.18.59,1.8.88l1,.48c.73.34,1.49.68,2.26,1l.8.36c1.06.46,2.16.91,3.31,1.36l.69.26c.93.36,1.88.72,2.87,1.07l1.27.43c.84.29,1.69.57,2.56.84l1.5.46c.86.26,1.74.51,2.64.76l1.58.42c1,.26,2,.49,3,.73.48.11.95.23,1.44.33,1.51.34,3.05.65,4.64.93,4.94.88,9.28,1.48,13.11,2l2.76.38.64.09,2.11.32.63.09c.74.12,1.44.24,2.12.37l.82.16,1.19.26.81.2c.55.14,1.08.29,1.56.45.15,0,.27.1.41.15A6.83,6.83,0,0,1-467,617c1,1.48,1.19,4,.51,7.73h-55.07a77.9,77.9,0,0,1-9.34-5.66l-.19-.14c-.45-.31-.87-.63-1.29-.94l-.32-.23c-.38-.29-.75-.57-1.11-.86l-.36-.28-1-.78-.36-.3-.86-.72-.34-.3c-.25-.22-.51-.44-.74-.66l-.32-.29-.64-.58-.28-.27-1-1-.21-.22-.23-.23-.35-.36-.14-.15-.28-.3-.08-.09-.14-.15C-541.69,609-544.6,603.09-543,598.23Zm-.46,17.32.33.32.25.25.7.67.27.26.86.78.28.26,1,.88.28.24,1.18,1,.28.22c.43.35.88.71,1.35,1.07l.26.2c.49.37,1,.75,1.53,1.13l.25.19c.54.39,1.11.79,1.7,1.19l.23.16c.18.12.34.24.52.35h-15.05A12.2,12.2,0,0,1-543.45,615.55Zm7.46,55.09a5.73,5.73,0,0,1-5.6-4.44L-550,630.09h12.15l4.87,40.55Zm8.39,0-4.87-40.55h14.12l1.68,40.55Zm27.59,0h-11.26L-513,630.09h14.64Zm16.33,0h-10.93l1.68-40.55h14.12Zm14-4.44a5.73,5.73,0,0,1-5.6,4.44h-3l4.86-40.55h12.15Z"/></clipPath><clipPath id="clip-path-3"><path class="cls-2" d="M-637,615.88c0-16.64-13.81-30.29-33.14-34.5l-.24,0a60,60,0,0,0-12.47-1.3c-19.43,0-36,8.8-42.69,22.53q-3,.36-5.86,1a1.14,1.14,0,0,0-.32.07c-21.82,4.75-37.39,20.12-37.39,38.87,0,6.35,1.71,11.14,5.23,14.64,6.37,6.35,17.77,7.18,31.32,7.18,2.33,0,4.73,0,7.17,0,5.24-.06,10.87-.06,16.11,0,16.65.16,31,.31,38.5-7.13,3.51-3.5,5.22-8.29,5.22-14.64a32.75,32.75,0,0,0-.78-7.11c10.12-.12,19.34-1.06,24.69-6.43,3.13-3.14,4.65-7.42,4.65-13.06m-82.1-13.78c4.91-7.45,13.77-13,24.37-15.33.8.15,2.46.5,4.59,1.08-6.1,3.46-11.45,8.58-12,15.93l-.87-.19-.22-.05c-.91-.19-1.83-.36-2.76-.52-.62-.1-1.24-.2-1.87-.28-.46-.07-.92-.14-1.38-.19-1.12-.13-2.25-.23-3.38-.31l-1,0c-1.25-.07-2.5-.12-3.77-.12l-1.77,0m44.52,51.17c-5.87,5.84-19.21,5.7-34.65,5.55-2.63,0-5.34-.06-8.1-.06s-5.48,0-8.11.06c-15.45.16-28.78.3-34.65-5.55-2.44-2.44-3.63-6-3.63-10.79,0-16,13.62-29.23,32.81-33.51,1,.18,3.29.66,6.26,1.51-7.63,4.14-14.43,10.47-14.29,19.9a2.71,2.71,0,0,0,2.7,2.67h0a2.7,2.7,0,0,0,2.65-2.76c-.13-8.55,8.24-14,16.22-17.3,8,3.27,16.34,8.75,16.21,17.3a2.71,2.71,0,0,0,2.65,2.76h0a2.7,2.7,0,0,0,2.69-2.67c.15-9.43-6.66-15.76-14.28-19.9,3-.85,5.29-1.33,6.25-1.51,14.75,3.29,26.21,11.84,30.72,22.9l.11.29a27.83,27.83,0,0,1,2,10.32c0,4.82-1.19,8.35-3.63,10.79m29.12-28.17c-4.21,4.23-13.26,4.81-22.49,4.86-4.56-11.48-15.16-20.31-28.83-24.74v-.06c-.11-7.3,7-12,13.93-14.85,6.88,2.83,14,7.55,13.93,14.85a2.72,2.72,0,0,0,2.65,2.76h0a2.7,2.7,0,0,0,2.69-2.67c.13-8.15-5.53-13.71-12-17.4,2.18-.6,3.88-1,4.66-1.09,16.67,3.74,28.5,15.2,28.5,29.12,0,4.13-1,7.15-3.06,9.22"/></clipPath><clipPath id="clip-path-4"><rect class="cls-1" x="-967.14" y="567.03" width="136.67" height="108.33"/></clipPath><clipPath id="clip-path-5"><path class="cls-2" d="M-253.73,414.1c-9.81-15.53-32.6-26.28-56-26.28s-46.24,10.75-56,26.3a16.06,16.06,0,0,0-13.33,15.7,16,16,0,0,0,11.57,15.29l4,14.77a15.9,15.9,0,0,0,15.36,11.71h76.75a15.89,15.89,0,0,0,15.35-11.71l3.94-14.68a16,16,0,0,0,11.91-15.38A16,16,0,0,0-253.73,414.1Zm-7.65,44.4a10.49,10.49,0,0,1-10.12,7.72h-76.75a10.48,10.48,0,0,1-10.12-7.72l-3.44-12.8c.14,0,.27,0,.41-.06l.86-.11c.36-.06.71-.13,1.06-.21s.55-.13.82-.21.69-.21,1-.33l.78-.3a10.52,10.52,0,0,0,1-.45l.73-.37c.31-.18.61-.37.91-.57s.45-.28.66-.44.58-.46.87-.7.38-.31.56-.48.59-.58.87-.88c.14-.15.29-.29.42-.45a14.36,14.36,0,0,0,1.13-1.47,16.09,16.09,0,0,0,13.35,7.08,16.07,16.07,0,0,0,13.34-7.08,16.07,16.07,0,0,0,13.34,7.08,16.06,16.06,0,0,0,13.34-7.08A16.08,16.08,0,0,0-283,445.75a16.07,16.07,0,0,0,13.34-7.08,15.7,15.7,0,0,0,1.12,1.46c.13.15.28.29.42.44.28.3.56.6.86.88s.36.31.55.47.57.48.87.7l.64.43c.3.2.6.4.91.58l.7.37,1,.46.74.29c.35.13.7.24,1.06.34l.75.21c.38.09.76.16,1.15.22s.49.09.75.12c.08,0,.16,0,.25,0Zm6.61-18.25h0l-.76.09c-.26,0-.53,0-.8,0A10.61,10.61,0,0,1-267,429.82a2.71,2.71,0,0,0-2.71-2.69,2.71,2.71,0,0,0-2.71,2.69A10.61,10.61,0,0,1-283,440.38a10.61,10.61,0,0,1-10.64-10.56,2.7,2.7,0,0,0-2.71-2.69,2.7,2.7,0,0,0-2.7,2.69,10.62,10.62,0,0,1-10.64,10.56,10.61,10.61,0,0,1-10.63-10.56,2.71,2.71,0,0,0-2.71-2.69,2.7,2.7,0,0,0-2.71,2.69,10.61,10.61,0,0,1-10.63,10.56A10.61,10.61,0,0,1-347,429.82a2.7,2.7,0,0,0-2.71-2.69,2.7,2.7,0,0,0-2.7,2.69,10.61,10.61,0,0,1-10.64,10.56,11.11,11.11,0,0,1-1.82-.17h0a10.6,10.6,0,0,1-8.79-10.39,10.65,10.65,0,0,1,9.78-10.52,2.72,2.72,0,0,0,2.13-1.34c6.92-11.93,26.16-24.76,52.05-24.76,25.67,0,44.81,12.62,51.88,24.46a2.7,2.7,0,0,0,2.31,1.63,10.63,10.63,0,0,1,9.87,10.53A10.59,10.59,0,0,1-254.77,440.25Z"/></clipPath><clipPath id="clip-path-6"><path class="cls-2" d="M-309.72,399.64a2.7,2.7,0,0,0-2.71,2.69v6a2.7,2.7,0,0,0,2.71,2.68,2.69,2.69,0,0,0,2.71-2.68v-6a2.7,2.7,0,0,0-2.71-2.69"/></clipPath><clipPath id="clip-path-7"><path class="cls-2" d="M-327.7,400.27l-7.23,6a2.67,2.67,0,0,0-.33,3.78,2.68,2.68,0,0,0,2.08,1,2.68,2.68,0,0,0,1.73-.62l7.23-6a2.68,2.68,0,0,0,.33-3.79,2.72,2.72,0,0,0-3.81-.33"/></clipPath><clipPath id="clip-path-8"><path class="cls-2" d="M-291.73,400.27a2.73,2.73,0,0,0-3.82.33,2.68,2.68,0,0,0,.34,3.79l7.22,6a2.71,2.71,0,0,0,1.74.62,2.71,2.71,0,0,0,2.08-1,2.66,2.66,0,0,0-.34-3.78Z"/></clipPath><clipPath id="clip-path-9"><rect class="cls-1" x="-570.14" y="374.03" width="129.9" height="109.77"/></clipPath><clipPath id="clip-path-10"><rect class="cls-1" x="-759.14" y="372.83" width="112.01" height="112.21"/></clipPath><clipPath id="clip-path-11"><path class="cls-2" d="M-703.14,410.36a18.58,18.58,0,0,0-18.54,18.57,18.58,18.58,0,0,0,18.54,18.57,18.58,18.58,0,0,0,18.54-18.57,18.58,18.58,0,0,0-18.54-18.57m0,31.75a13.18,13.18,0,0,1-13.15-13.18,13.18,13.18,0,0,1,13.15-13.18A13.18,13.18,0,0,1-690,428.93a13.18,13.18,0,0,1-13.16,13.18"/></clipPath><clipPath id="clip-path-12"><path class="cls-2" d="M-715.79,445.91a2.69,2.69,0,0,0-3.64,1.11l-3,5.63a2.69,2.69,0,0,0,1.11,3.64,2.63,2.63,0,0,0,1.27.32,2.68,2.68,0,0,0,2.37-1.43l3-5.63a2.69,2.69,0,0,0-1.11-3.64"/></clipPath><clipPath id="clip-path-13"><path class="cls-2" d="M-680.11,420.89a2.85,2.85,0,0,0,.76.11,2.7,2.7,0,0,0,2.58-1.94L-675,413a2.7,2.7,0,0,0-1.82-3.35,2.69,2.69,0,0,0-3.34,1.83l-1.8,6.11a2.69,2.69,0,0,0,1.82,3.35"/></clipPath><clipPath id="clip-path-14"><path class="cls-2" d="M-689.22,446.51h0a2.69,2.69,0,0,0-2.69,2.66l-.07,6.38a2.68,2.68,0,0,0,2.65,2.72h0a2.69,2.69,0,0,0,2.69-2.66l.07-6.37a2.69,2.69,0,0,0-2.65-2.73"/></clipPath><clipPath id="clip-path-15"><path class="cls-2" d="M-664.59,436.6a2.67,2.67,0,0,0-3.77-.45,2.69,2.69,0,0,0-.45,3.78l3.93,5a2.67,2.67,0,0,0,2.12,1,2.68,2.68,0,0,0,1.66-.58,2.7,2.7,0,0,0,.45-3.78Z"/></clipPath><clipPath id="clip-path-16"><path class="cls-2" d="M-664.94,429a2.67,2.67,0,0,0-2.85-2.53l-6.35.39a2.67,2.67,0,0,0-2.52,2.85,2.68,2.68,0,0,0,2.68,2.53h.16l6.36-.39a2.69,2.69,0,0,0,2.52-2.85"/></clipPath><clipPath id="clip-path-17"><path class="cls-2" d="M-696.5,408.07a2.71,2.71,0,0,0,1.26.32,2.68,2.68,0,0,0,2.37-1.43l3-5.63a2.69,2.69,0,0,0-1.11-3.65,2.7,2.7,0,0,0-3.64,1.12l-3,5.62a2.69,2.69,0,0,0,1.11,3.65"/></clipPath><clipPath id="clip-path-18"><path class="cls-2" d="M-663.75,423.28a2.7,2.7,0,0,0,1.26.31,2.67,2.67,0,0,0,2.37-1.42l3-5.63a2.69,2.69,0,0,0-1.11-3.65,2.7,2.7,0,0,0-3.64,1.11l-3,5.63a2.7,2.7,0,0,0,1.12,3.65"/></clipPath><clipPath id="clip-path-19"><path class="cls-2" d="M-674.88,404.81l5.62,3a2.62,2.62,0,0,0,1.26.32,2.68,2.68,0,0,0,2.38-1.43,2.69,2.69,0,0,0-1.11-3.64l-5.62-3a2.69,2.69,0,0,0-3.64,1.11,2.71,2.71,0,0,0,1.11,3.65"/></clipPath><clipPath id="clip-path-20"><path class="cls-2" d="M-675.28,439.33l-5.61-3a2.69,2.69,0,0,0-3.64,1.11,2.7,2.7,0,0,0,1.11,3.65l5.61,3a2.62,2.62,0,0,0,1.26.32,2.68,2.68,0,0,0,2.38-1.43,2.69,2.69,0,0,0-1.11-3.64"/></clipPath><clipPath id="clip-path-21"><path class="cls-2" d="M-686.85,392.59a2.67,2.67,0,0,0,2.18,1.12,2.7,2.7,0,0,0,1.57-.51,2.69,2.69,0,0,0,.61-3.76l-3.72-5.17a2.69,2.69,0,0,0-3.76-.61,2.7,2.7,0,0,0-.61,3.76Z"/></clipPath><clipPath id="clip-path-22"><path class="cls-2" d="M-703.9,396.64a2.76,2.76,0,0,0,.79.12,2.69,2.69,0,0,0,2.57-1.91l1.86-6.1a2.68,2.68,0,0,0-1.79-3.36,2.68,2.68,0,0,0-3.35,1.79l-1.86,6.09a2.69,2.69,0,0,0,1.78,3.37"/></clipPath><clipPath id="clip-path-23"><path class="cls-2" d="M-729.26,431.34a2.5,2.5,0,0,0,.76-.11,2.69,2.69,0,0,0,1.82-3.34l-1.79-6.12a2.71,2.71,0,0,0-3.35-1.82,2.69,2.69,0,0,0-1.81,3.35l1.79,6.11a2.7,2.7,0,0,0,2.58,1.93"/></clipPath><clipPath id="clip-path-24"><path class="cls-2" d="M-724.86,436.59a2.69,2.69,0,0,0-3.78.45l-3.93,5a2.7,2.7,0,0,0,.45,3.79,2.65,2.65,0,0,0,1.66.57,2.69,2.69,0,0,0,2.12-1l3.93-5a2.69,2.69,0,0,0-.45-3.78"/></clipPath><clipPath id="clip-path-25"><path class="cls-2" d="M-721.77,415.16l-.19-6.37a2.66,2.66,0,0,0-2.77-2.61,2.69,2.69,0,0,0-2.61,2.77l.19,6.38a2.69,2.69,0,0,0,2.69,2.61h.08a2.7,2.7,0,0,0,2.61-2.78"/></clipPath><clipPath id="clip-path-26"><path class="cls-2" d="M-716.07,400.79l3,5.62a2.71,2.71,0,0,0,2.38,1.43,2.59,2.59,0,0,0,1.26-.32,2.69,2.69,0,0,0,1.11-3.64l-3-5.63a2.68,2.68,0,0,0-3.64-1.11,2.7,2.7,0,0,0-1.11,3.65"/></clipPath><clipPath id="clip-path-27"><path class="cls-2" d="M-743.74,420.89a2.71,2.71,0,0,0,2.38,1.43,2.7,2.7,0,0,0,1.26-.31,2.7,2.7,0,0,0,1.11-3.65l-3-5.63a2.68,2.68,0,0,0-3.63-1.11,2.7,2.7,0,0,0-1.12,3.65Z"/></clipPath><clipPath id="clip-path-28"><path class="cls-2" d="M-734.77,404.26a2.74,2.74,0,0,0,1.26-.32l5.62-3a2.69,2.69,0,0,0,1.11-3.64,2.68,2.68,0,0,0-3.64-1.11l-5.62,3a2.7,2.7,0,0,0-1.11,3.65,2.69,2.69,0,0,0,2.38,1.43"/></clipPath><clipPath id="clip-path-29"><path class="cls-2" d="M-748,437.14a2.71,2.71,0,0,0,2.38,1.43,2.74,2.74,0,0,0,1.26-.32l5.62-3a2.7,2.7,0,0,0,1.11-3.65,2.69,2.69,0,0,0-3.64-1.11l-5.62,3a2.7,2.7,0,0,0-1.11,3.65"/></clipPath><clipPath id="clip-path-30"><path class="cls-2" d="M-723.85,393.2a2.73,2.73,0,0,0,1.58.51,2.68,2.68,0,0,0,2.18-1.12l3.72-5.17a2.7,2.7,0,0,0-.6-3.76,2.69,2.69,0,0,0-3.76.61l-3.72,5.17a2.7,2.7,0,0,0,.6,3.76"/></clipPath><clipPath id="clip-path-31"><polygon class="cls-2" points="-897.72 461.03 -828.3 461.03 -828.3 396.03 -897.72 396.03 -967.14 396.03 -967.14 461.03 -897.72 461.03"/></clipPath><clipPath id="clip-path-32"><path class="cls-2" d="M-249.29,224.88l-27.3-24.79c-2.17-8-7.65-17.06-14.77-17.06-6.93,0-12.32,8.6-14.6,16.44l-64.46,25a2.68,2.68,0,0,0-1.67,3,2.65,2.65,0,0,0,.11.3v55.58a2.69,2.69,0,0,0,2.7,2.69h118.44a2.69,2.69,0,0,0,2.7-2.69V227.08A2.7,2.7,0,0,0-249.29,224.88Zm-117.29,20.61h113V229.76h-113Zm0,13h113v-7.62h-113Zm75.22-70.08c2.91,0,7.81,6.05,9.65,13.05a2.88,2.88,0,0,0,.06.71,22.17,22.17,0,0,1,.64,3.6c0,.35.05.69.05,1,0,1.84,0,6.75-10.4,6.75s-10.39-4.91-10.39-6.75c0-.35,0-.69.05-1a24.06,24.06,0,0,1,.64-3.65,2.46,2.46,0,0,0,.08-.76C-299.11,194.4-294.25,188.41-291.36,188.41Zm-15.76,17.28c0,.38,0,.76,0,1.12,0,4.53,2,12.13,15.79,12.13.82,0,1.6,0,2.33-.09.25,0,.48,0,.72-.07.47,0,.94-.09,1.38-.15l.76-.14c.38-.07.76-.14,1.12-.23l.71-.19c.33-.1.65-.19.95-.3s.44-.16.65-.24.55-.23.81-.35.39-.19.57-.29.49-.27.72-.41.33-.2.48-.31.43-.31.63-.47.28-.21.4-.32.39-.37.58-.56l.29-.3c.24-.27.45-.54.65-.81l.07-.09a10.36,10.36,0,0,0,.58-.94c.06-.11.11-.22.16-.33s.21-.42.31-.63l.14-.39c.08-.2.15-.39.21-.58l.12-.41c0-.19.1-.37.14-.56s.06-.27.08-.41a5.34,5.34,0,0,0,.09-.53c0-.14,0-.27,0-.4l0-.2,17.66,16h-97.09Zm-59.46,75h113V263.87h-113Z"/></clipPath><clipPath id="clip-path-33"><rect class="cls-1" x="-572.14" y="184.03" width="132.65" height="99.72"/></clipPath><clipPath id="clip-path-34"><rect class="cls-1" x="-769.14" y="187.03" width="132.5" height="93.99"/></clipPath><clipPath id="clip-path-35"><path class="cls-2" d="M-841.33,237.72a2.74,2.74,0,0,0-.93-2.28,2.7,2.7,0,0,0-2.38-.57,8.87,8.87,0,0,1-2.12.27,9,9,0,0,1-9-9,9,9,0,0,1,1.1-4.32,2.73,2.73,0,0,0-.28-3,2.66,2.66,0,0,0-2.88-.87,11.83,11.83,0,0,1-3.54.54,11.93,11.93,0,0,1-11.87-12c0-.16,0-.32,0-.48v-.24a2.73,2.73,0,0,0-1.07-2.34,2.7,2.7,0,0,0-2.53-.37,11.78,11.78,0,0,1-4,.72,11.93,11.93,0,0,1-11.87-12A11.78,11.78,0,0,1-892,188a2.74,2.74,0,0,0-.53-2.68,2.67,2.67,0,0,0-2.59-.85,9.83,9.83,0,0,1-10.79-5,2.66,2.66,0,0,0-2.92-1.36,56.4,56.4,0,0,0-42,39.3c0,.1-.09.18-.12.28-.08.27-.13.55-.2.82-.24.89-.47,1.77-.67,2.67l-.21,1.1c-.17.85-.32,1.69-.45,2.55,0,.28-.09.56-.13.84-.15,1.1-.26,2.2-.35,3.31,0,.26,0,.53,0,.79-.07,1.16-.12,2.33-.12,3.5v.23h0a56.44,56.44,0,0,0,39.51,53.67l0,0,.4.1c1,.32,2.08.59,3.14.85l.88.2c1.2.27,2.41.51,3.64.69l.29,0c1.13.16,2.27.29,3.42.38l.94.08c1.23.08,2.47.14,3.73.14.8,0,1.61,0,2.44-.06.64,0,1.28-.08,1.91-.13l.48,0h0a56.46,56.46,0,0,0,51-51.71M-945,220.44a6.14,6.14,0,0,1,6.1,6.15,6.13,6.13,0,0,1-6.1,6.14,5.81,5.81,0,0,1-2.72-.68c0-1,.05-2.05.13-3.06,0-.11,0-.21,0-.31.11-1.22.26-2.42.46-3.61l.12-.72c.23-1.28.49-2.55.81-3.79a5.64,5.64,0,0,1,1.16-.12m47.85,63.8c-1,0-2,0-2.93-.1-.3,0-.6,0-.89-.06-.69-.06-1.37-.12-2-.2l-1-.13c-.66-.09-1.32-.19-2-.31l-.91-.17c-.84-.16-1.67-.35-2.5-.56l-.3-.07a7.5,7.5,0,0,1,7.11-5.14,7.56,7.56,0,0,1,7.47,6.69c-.67,0-1.33.05-2,.05m7.35-.56a12.94,12.94,0,0,0-12.82-11.6A12.86,12.86,0,0,0-914.84,281a51,51,0,0,1-32.71-43.2,11,11,0,0,0,2.56.33,11.53,11.53,0,0,0,11.48-11.55,11.53,11.53,0,0,0-10.84-11.53,51,51,0,0,1,34.84-31.25,15.22,15.22,0,0,0,11.56,6.24,17.44,17.44,0,0,0-.09,1.76,17.33,17.33,0,0,0,17.25,17.38,17.61,17.61,0,0,0,2.4-.17,17.32,17.32,0,0,0,17.47,14.83,14.25,14.25,0,0,0-.18,2.26A14.41,14.41,0,0,0-847,240.55a51.09,51.09,0,0,1-42.74,43.13"/></clipPath><clipPath id="clip-path-36"><path class="cls-2" d="M-907,228.74A15.23,15.23,0,0,0-922.18,244,15.23,15.23,0,0,0-907,259.28,15.24,15.24,0,0,0-891.85,244,15.24,15.24,0,0,0-907,228.74m0,25.12A9.83,9.83,0,0,1-916.8,244a9.83,9.83,0,0,1,9.78-9.85,9.83,9.83,0,0,1,9.79,9.85,9.83,9.83,0,0,1-9.79,9.85"/></clipPath><clipPath id="clip-path-37"><path class="cls-2" d="M-913,214.23a9.57,9.57,0,0,0,9.53-9.6A9.57,9.57,0,0,0-913,195a9.57,9.57,0,0,0-9.53,9.59,9.57,9.57,0,0,0,9.53,9.6m0-13.78a4.17,4.17,0,0,1,4.15,4.18,4.17,4.17,0,0,1-4.15,4.18,4.17,4.17,0,0,1-4.15-4.18,4.17,4.17,0,0,1,4.15-4.18"/></clipPath><clipPath id="clip-path-38"><path class="cls-2" d="M-869.84,241.83a9.58,9.58,0,0,0-9.53,9.6,9.58,9.58,0,0,0,9.53,9.6,9.57,9.57,0,0,0,9.53-9.6,9.57,9.57,0,0,0-9.53-9.6m0,13.78a4.16,4.16,0,0,1-4.14-4.18,4.17,4.17,0,0,1,4.14-4.18,4.17,4.17,0,0,1,4.15,4.18,4.17,4.17,0,0,1-4.15,4.18"/></clipPath><clipPath id="clip-path-39"><path class="cls-2" d="M154.27,303.1c-9.81-15.53-32.6-26.28-56-26.28s-46.24,10.75-56,26.3a15.9,15.9,0,0,0-1.76,31l4,14.77a15.9,15.9,0,0,0,15.36,11.71H136.5a15.89,15.89,0,0,0,15.35-11.71l3.94-14.68a15.9,15.9,0,0,0-1.52-31.1Zm-7.65,44.4a10.49,10.49,0,0,1-10.12,7.72H59.75a10.48,10.48,0,0,1-10.12-7.72l-3.44-12.8c.14,0,.27,0,.41-.06l.86-.11c.36-.06.71-.13,1.06-.21s.55-.13.82-.21.69-.21,1-.33l.78-.3a10.52,10.52,0,0,0,1-.45l.73-.37c.31-.18.61-.37.91-.57s.45-.28.66-.44.58-.46.87-.7.38-.31.56-.48.59-.58.87-.88c.14-.15.29-.29.43-.45a15.83,15.83,0,0,0,1.12-1.47,16.12,16.12,0,0,0,26.69,0,16.11,16.11,0,0,0,26.68,0,16.12,16.12,0,0,0,26.69,0,15.7,15.7,0,0,0,1.12,1.46c.13.15.28.29.42.44.28.3.56.6.86.88s.36.31.55.47.57.48.87.7l.64.43c.3.2.6.4.91.58l.7.37,1,.46.74.29c.35.13.7.24,1.06.34l.75.21c.38.09.76.16,1.15.22s.49.09.75.12c.08,0,.16,0,.25,0Zm6.61-18.25h0l-.76.09c-.26,0-.53,0-.8,0A10.61,10.61,0,0,1,141,318.82a2.71,2.71,0,0,0-5.42,0,10.64,10.64,0,0,1-21.27,0,2.71,2.71,0,0,0-5.41,0,10.64,10.64,0,0,1-21.27,0,2.71,2.71,0,0,0-5.42,0,10.64,10.64,0,0,1-21.27,0,2.71,2.71,0,0,0-5.41,0,10.61,10.61,0,0,1-10.64,10.56,11.11,11.11,0,0,1-1.82-.17h0a10.54,10.54,0,0,1,1-20.91A2.72,2.72,0,0,0,46.18,307C53.1,295,72.34,282.2,98.23,282.2c25.67,0,44.81,12.62,51.88,24.46a2.7,2.7,0,0,0,2.31,1.63,10.54,10.54,0,0,1,.81,21Z"/></clipPath><clipPath id="clip-path-40"><path class="cls-2" d="M98.28,288.64a2.7,2.7,0,0,0-2.71,2.69v6a2.71,2.71,0,0,0,5.42,0v-6a2.7,2.7,0,0,0-2.71-2.69"/></clipPath><clipPath id="clip-path-41"><path class="cls-2" d="M80.3,289.27l-7.23,6a2.7,2.7,0,0,0,3.48,4.12l7.23-6a2.68,2.68,0,0,0,.33-3.79,2.72,2.72,0,0,0-3.81-.33"/></clipPath><clipPath id="clip-path-42"><path class="cls-2" d="M116.27,289.27a2.73,2.73,0,0,0-3.82.33,2.68,2.68,0,0,0,.34,3.79l7.22,6a2.74,2.74,0,0,0,3.82-.34,2.66,2.66,0,0,0-.34-3.78Z"/></clipPath><clipPath id="clip-path-43"><path class="cls-3" d="M154.27,73.1c-9.81-15.53-32.6-26.28-56-26.28S52,57.57,42.19,73.12a15.9,15.9,0,0,0-1.76,31l4,14.77a15.9,15.9,0,0,0,15.36,11.71H136.5a15.89,15.89,0,0,0,15.35-11.71l3.94-14.68a15.9,15.9,0,0,0-1.52-31.1Zm-7.65,44.4a10.49,10.49,0,0,1-10.12,7.72H59.75a10.48,10.48,0,0,1-10.12-7.72l-3.44-12.8c.14,0,.27,0,.41-.06l.86-.11c.36-.06.71-.13,1.06-.21s.55-.13.82-.21.69-.21,1-.33.52-.19.78-.3a10.52,10.52,0,0,0,1-.45l.73-.37c.31-.18.61-.37.91-.57s.45-.28.66-.44.58-.46.87-.7.38-.31.56-.48.59-.58.87-.88.29-.29.43-.45a15.83,15.83,0,0,0,1.12-1.47,16.12,16.12,0,0,0,26.69,0,16.11,16.11,0,0,0,26.68,0,16.12,16.12,0,0,0,26.69,0,15.7,15.7,0,0,0,1.12,1.46c.13.15.28.29.42.44.28.3.56.6.86.88s.36.31.55.47.57.48.87.7l.64.43c.3.2.6.4.91.58l.7.37,1,.46.74.29c.35.13.7.24,1.06.34l.75.21c.38.09.76.16,1.15.22s.49.09.75.12c.08,0,.16,0,.25,0Zm6.61-18.25h0l-.76.09c-.26,0-.53,0-.8,0A10.61,10.61,0,0,1,141,88.82a2.71,2.71,0,0,0-5.42,0,10.64,10.64,0,0,1-21.27,0,2.71,2.71,0,0,0-5.41,0,10.64,10.64,0,0,1-21.27,0,2.71,2.71,0,0,0-5.42,0,10.64,10.64,0,0,1-21.27,0,2.71,2.71,0,0,0-5.41,0A10.61,10.61,0,0,1,44.91,99.38a11.11,11.11,0,0,1-1.82-.17h0a10.54,10.54,0,0,1,1-20.91A2.72,2.72,0,0,0,46.18,77C53.1,65,72.34,52.2,98.23,52.2c25.67,0,44.81,12.62,51.88,24.46a2.7,2.7,0,0,0,2.31,1.63,10.54,10.54,0,0,1,.81,21Z"/></clipPath><clipPath id="clip-path-44"><rect class="cls-4" x="-903.14" y="-444.97" width="1400" height="960"/></clipPath><clipPath id="clip-path-45"><path class="cls-3" d="M98.28,58.64a2.7,2.7,0,0,0-2.71,2.69v6a2.71,2.71,0,0,0,5.42,0v-6a2.7,2.7,0,0,0-2.71-2.69"/></clipPath><clipPath id="clip-path-47"><path class="cls-3" d="M80.3,59.27l-7.23,6a2.7,2.7,0,0,0,3.48,4.12l7.23-6a2.68,2.68,0,0,0,.33-3.79,2.72,2.72,0,0,0-3.81-.33"/></clipPath><clipPath id="clip-path-49"><path class="cls-3" d="M116.27,59.27a2.73,2.73,0,0,0-3.82.33,2.68,2.68,0,0,0,.34,3.79l7.22,6a2.74,2.74,0,0,0,3.82-.34,2.66,2.66,0,0,0-.34-3.78Z"/></clipPath></defs><title>SFL logo</title><g id="Layer_1" data-name="Layer 1"><path class="cls-47" d="M154.27,73.1c-9.81-15.53-32.6-26.28-56-26.28S52,57.57,42.19,73.12a15.9,15.9,0,0,0-1.76,31l4,14.77a15.9,15.9,0,0,0,15.36,11.71H136.5a15.89,15.89,0,0,0,15.35-11.71l3.94-14.68a15.9,15.9,0,0,0-1.52-31.1Zm-7.65,44.4a10.49,10.49,0,0,1-10.12,7.72H59.75a10.48,10.48,0,0,1-10.12-7.72l-3.44-12.8c.14,0,.27,0,.41-.06l.86-.11c.36-.06.71-.13,1.06-.21s.55-.13.82-.21.69-.21,1-.33.52-.19.78-.3a10.52,10.52,0,0,0,1-.45l.73-.37c.31-.18.61-.37.91-.57s.45-.28.66-.44.58-.46.87-.7.38-.31.56-.48.59-.58.87-.88.29-.29.43-.45a15.83,15.83,0,0,0,1.12-1.47,16.12,16.12,0,0,0,26.69,0,16.11,16.11,0,0,0,26.68,0,16.12,16.12,0,0,0,26.69,0,15.7,15.7,0,0,0,1.12,1.46c.13.15.28.29.42.44.28.3.56.6.86.88s.36.31.55.47.57.48.87.7l.64.43c.3.2.6.4.91.58l.7.37,1,.46.74.29c.35.13.7.24,1.06.34l.75.21c.38.09.76.16,1.15.22s.49.09.75.12c.08,0,.16,0,.25,0Zm6.61-18.25h0l-.76.09c-.26,0-.53,0-.8,0A10.61,10.61,0,0,1,141,88.82a2.71,2.71,0,0,0-5.42,0,10.64,10.64,0,0,1-21.27,0,2.71,2.71,0,0,0-5.41,0,10.64,10.64,0,0,1-21.27,0,2.71,2.71,0,0,0-5.42,0,10.64,10.64,0,0,1-21.27,0,2.71,2.71,0,0,0-5.41,0A10.61,10.61,0,0,1,44.91,99.38a11.11,11.11,0,0,1-1.82-.17h0a10.54,10.54,0,0,1,1-20.91A2.72,2.72,0,0,0,46.18,77C53.1,65,72.34,52.2,98.23,52.2c25.67,0,44.81,12.62,51.88,24.46a2.7,2.7,0,0,0,2.31,1.63,10.54,10.54,0,0,1,.81,21Z"/><g class="cls-48"><rect class="cls-4" x="-903.14" y="-444.97" width="1400" height="960"/><g class="cls-49"><rect class="cls-4" x="23.86" y="41.82" width="148.84" height="93.77"/></g></g><path class="cls-47" d="M98.28,58.64a2.7,2.7,0,0,0-2.71,2.69v6a2.71,2.71,0,0,0,5.42,0v-6a2.7,2.7,0,0,0-2.71-2.69"/><g class="cls-50"><rect class="cls-4" x="-903.14" y="-444.97" width="1400" height="960"/><g class="cls-49"><rect class="cls-4" x="90.57" y="53.64" width="15.42" height="21.38"/></g></g><path class="cls-47" d="M80.3,59.27l-7.23,6a2.7,2.7,0,0,0,3.48,4.12l7.23-6a2.68,2.68,0,0,0,.33-3.79,2.72,2.72,0,0,0-3.81-.33"/><g class="cls-51"><rect class="cls-4" x="-903.14" y="-444.97" width="1400" height="960"/><g class="cls-49"><rect class="cls-4" x="67.11" y="53.64" width="22.64" height="21.38"/></g></g><path class="cls-47" d="M116.27,59.27a2.73,2.73,0,0,0-3.82.33,2.68,2.68,0,0,0,.34,3.79l7.22,6a2.74,2.74,0,0,0,3.82-.34,2.66,2.66,0,0,0-.34-3.78Z"/><g class="cls-52"><rect class="cls-4" x="-903.14" y="-444.97" width="1400" height="960"/><g class="cls-49"><rect class="cls-4" x="106.82" y="53.64" width="22.64" height="21.38"/></g></g></g></svg>